<svg width="32" height="30" viewBox="0 0 32 30" fill="none" xmlns="http://www.w3.org/2000/svg">
<path d="M28.3072 15.0011C28.3072 15.3323 28.2981 15.6724 28.2708 16.0036C28.2617 16.1647 28.2435 16.3348 28.2254 16.4959C28.2254 16.487 28.1708 16.8898 28.2072 16.6839C28.2345 16.5049 28.1799 16.8361 28.1799 16.8719C28.0708 17.5522 27.8981 18.2145 27.689 18.868C27.589 19.1723 27.4708 19.4677 27.3526 19.7631C27.2526 20.0048 27.3254 19.8168 27.3526 19.772C27.3163 19.8436 27.289 19.9153 27.2526 19.9869C27.1708 20.1659 27.0799 20.3449 26.989 20.5239C26.6799 21.1147 26.3253 21.6876 25.9344 22.2336C25.8435 22.3589 25.7526 22.4842 25.6526 22.6095C25.8253 22.3947 25.5344 22.7528 25.4981 22.7975C25.2799 23.0481 25.0526 23.2988 24.8253 23.5405C24.589 23.7821 24.3435 24.0059 24.0981 24.2297C23.9799 24.3371 23.8617 24.4356 23.7344 24.534C23.6708 24.5877 23.6071 24.6325 23.5526 24.6862C23.3617 24.8473 23.6253 24.6325 23.498 24.731C22.9708 25.1248 22.4253 25.4739 21.8435 25.7872C21.5435 25.9483 21.2435 26.1005 20.9344 26.2437C20.8617 26.2795 20.7889 26.3064 20.7162 26.3422C20.5253 26.4317 20.9071 26.2706 20.7071 26.3422C20.5344 26.4138 20.3708 26.4764 20.198 26.5391C19.5435 26.7718 18.8798 26.9598 18.198 27.0941C18.0344 27.1299 17.8707 27.1567 17.7071 27.1836C17.6253 27.1925 17.5435 27.2104 17.4616 27.2194C17.7162 27.1836 17.5071 27.2104 17.4525 27.2194C17.0798 27.2641 16.698 27.291 16.3162 27.3089C15.598 27.3357 14.8798 27.2999 14.1616 27.2194C14.1071 27.2104 13.898 27.1836 14.1525 27.2194C14.0707 27.2104 13.9889 27.1925 13.9071 27.1836C13.7434 27.1567 13.5798 27.1299 13.4162 27.0941C13.0525 27.0224 12.698 26.9329 12.3434 26.8345C12.0343 26.745 11.7252 26.6465 11.4161 26.5391C11.2616 26.4854 11.1161 26.4227 10.9616 26.369C10.9161 26.3511 10.7252 26.2616 10.9525 26.369C10.8616 26.3332 10.7707 26.2885 10.6798 26.2437C10.0616 25.9662 9.47066 25.635 8.89793 25.268C8.63429 25.098 8.37066 24.9189 8.11611 24.722C7.95247 24.5967 8.27066 24.8473 8.10702 24.7131C8.04338 24.6593 7.97974 24.6146 7.9252 24.5609C7.77065 24.4356 7.6252 24.3103 7.47065 24.176C6.98883 23.7463 6.52519 23.2809 6.107 22.7796C6.07064 22.7349 5.77973 22.3768 5.95246 22.5916C5.85245 22.4663 5.76154 22.341 5.67063 22.2157C5.46154 21.9293 5.26154 21.6339 5.07972 21.3295C4.91608 21.061 4.76154 20.7835 4.61608 20.506C4.54335 20.3628 4.47063 20.2196 4.40699 20.0764C4.37062 20.0048 4.34335 19.9332 4.30699 19.8615C4.13426 19.5125 4.3979 20.1032 4.25244 19.7452C3.99789 19.1097 3.77971 18.4652 3.62516 17.8028C3.55244 17.4895 3.47971 17.1673 3.43425 16.845C3.42516 16.7645 3.40698 16.6839 3.39789 16.6033C3.40698 16.657 3.42516 16.8629 3.39789 16.5944C3.37062 16.3885 3.35243 16.1826 3.33425 15.9768C3.27971 15.2875 3.2888 14.5983 3.34334 13.9091C3.36153 13.7211 3.37971 13.5421 3.39789 13.3541C3.40698 13.3004 3.43425 13.0945 3.39789 13.3451C3.40698 13.2646 3.42516 13.184 3.43425 13.1035C3.4888 12.7633 3.56153 12.4232 3.64335 12.092C3.80698 11.4296 4.02517 10.7851 4.27972 10.1496C4.36153 9.95266 4.1979 10.3286 4.27972 10.1406C4.31608 10.069 4.34335 9.99742 4.37972 9.92581C4.44335 9.78259 4.51608 9.63937 4.58881 9.49615C4.74335 9.20077 4.90699 8.90538 5.07972 8.61894C5.25245 8.33251 5.44336 8.05502 5.63427 7.77754C5.72518 7.65222 5.81609 7.52691 5.91609 7.40159C6.04337 7.24047 5.78882 7.55376 5.92518 7.39264C5.98882 7.32103 6.05246 7.24047 6.11609 7.16886C6.55246 6.65865 7.0161 6.18424 7.5252 5.73668C7.64338 5.62927 7.76156 5.53081 7.88883 5.43235C7.93429 5.39654 8.29793 5.11011 8.07975 5.28018C8.36157 5.06535 8.66157 4.85947 8.96157 4.6715C9.5343 4.3045 10.1252 3.98226 10.7525 3.70478C10.8252 3.66898 10.8979 3.64212 10.9707 3.60632C10.9252 3.62422 10.7343 3.69583 10.9798 3.60632C11.1343 3.54366 11.2798 3.48995 11.4343 3.43625C11.7616 3.31988 12.0889 3.21247 12.4161 3.12296C12.7525 3.03345 13.0889 2.95289 13.4343 2.88128C13.598 2.84547 13.7616 2.81862 13.9252 2.79177C14.0071 2.78281 14.0889 2.76491 14.1707 2.75596C13.9707 2.78281 14.1343 2.76491 14.2434 2.74701C14.9616 2.66645 15.6798 2.6396 16.398 2.66645C16.7344 2.68435 17.0707 2.70225 17.4071 2.74701C17.4435 2.74701 17.7071 2.78281 17.5344 2.76491C17.3616 2.73806 17.6253 2.78281 17.6616 2.78281C17.8435 2.80967 18.0253 2.84547 18.2071 2.88128C18.8889 3.01554 19.5617 3.20352 20.2071 3.43625C20.3617 3.48995 20.5071 3.55261 20.6617 3.60632C20.9071 3.70478 20.7162 3.63317 20.6708 3.60632C20.7435 3.64212 20.8162 3.66898 20.8889 3.70478C21.2162 3.848 21.5435 4.00912 21.8526 4.18814C22.4435 4.51038 23.0162 4.87738 23.5526 5.28018C23.3344 5.11011 23.698 5.39654 23.7435 5.43235C23.8617 5.53081 23.989 5.63822 24.1071 5.73668C24.3708 5.96941 24.6344 6.22004 24.8799 6.47067C25.0981 6.69445 25.3072 6.92718 25.5162 7.16886C25.5708 7.23152 25.8344 7.56271 25.6708 7.35684C25.789 7.509 25.9072 7.67013 26.0253 7.83125C26.4072 8.35936 26.7435 8.92328 27.0435 9.49615C27.1163 9.63937 27.189 9.78259 27.2526 9.92581C27.289 9.99742 27.3163 10.069 27.3526 10.1406C27.4435 10.3286 27.2799 9.95266 27.3526 10.1496C27.489 10.4808 27.6163 10.8209 27.7254 11.1611C27.9345 11.7966 28.089 12.45 28.1981 13.1035C28.2072 13.184 28.2254 13.2646 28.2344 13.3451C28.1981 13.0766 28.2344 13.3451 28.2435 13.4167C28.2617 13.5779 28.2799 13.7479 28.289 13.9091C28.289 14.294 28.3072 14.652 28.3072 15.0011C28.3072 15.6993 28.9345 16.3796 29.6708 16.3438C30.4072 16.308 31.0345 15.753 31.0345 15.0011C31.0072 8.70845 26.9526 3.0603 20.9617 0.885177C15.0616 -1.26309 8.07974 0.598741 4.0888 5.38759C2.06152 7.81334 0.852415 10.7404 0.588777 13.8732C0.334229 16.9524 1.10696 20.1211 2.73425 22.7617C4.2979 25.2949 6.64337 27.3984 9.38885 28.6247C12.3798 29.9584 15.6798 30.3344 18.898 29.6988C24.9344 28.4994 29.8708 23.4778 30.8163 17.4716C30.9436 16.657 31.0254 15.8335 31.0254 15.01C31.0254 14.3119 30.3981 13.6316 29.6617 13.6674C28.9254 13.6942 28.3072 14.2492 28.3072 15.0011Z" fill="#0568EA"/>
<path d="M14.3888 10.3018C14.3888 13.0945 14.3888 15.8962 14.3888 18.689C14.3888 19.0828 14.3888 19.4856 14.3888 19.8795C14.3888 20.5777 15.0161 21.258 15.7525 21.2221C16.4888 21.1863 17.1161 20.6314 17.1161 19.8795C17.1161 17.0867 17.1161 14.285 17.1161 11.4923C17.1161 11.0984 17.1161 10.6956 17.1161 10.3018C17.1161 9.6036 16.4888 8.92331 15.7525 8.95912C15.0161 8.99492 14.3888 9.54989 14.3888 10.3018Z" fill="#0568EA"/>
<path d="M10.8889 16.4331C13.7253 16.4331 16.5707 16.4331 19.4071 16.4331C19.8071 16.4331 20.2162 16.4331 20.6162 16.4331C21.3253 16.4331 22.0162 15.8155 21.9799 15.0905C21.9435 14.3654 21.3799 13.7478 20.6162 13.7478C17.7798 13.7478 14.9344 13.7478 12.098 13.7478C11.698 13.7478 11.2889 13.7478 10.8889 13.7478C10.1798 13.7478 9.48888 14.3654 9.52524 15.0905C9.5616 15.8155 10.1252 16.4331 10.8889 16.4331Z" fill="#0568EA"/>
</svg>
