<svg width="10" height="18" viewBox="0 0 10 18" fill="none" xmlns="http://www.w3.org/2000/svg">
<path d="M0.000925937 8.96121C0.00811156 8.65391 0.129051 8.3602 0.340334 8.13695L7.78794 0.379045C8.0171 0.142295 8.33078 0.00605861 8.66021 0.000197579C8.98965 -0.00566345 9.30797 0.119329 9.5454 0.347777C9.78284 0.576226 9.92003 0.889494 9.92688 1.21891C9.93372 1.54833 9.80968 1.86703 9.58194 2.10515L2.95863 9L9.58194 15.8949C9.80967 16.133 9.93372 16.4517 9.92688 16.7811C9.92003 17.1105 9.78284 17.4238 9.5454 17.6522C9.30797 17.8807 8.98965 18.0057 8.66021 17.9998C8.33077 17.9939 8.0171 17.8577 7.78794 17.621L0.340334 9.86305C0.226507 9.74294 0.137834 9.60128 0.0795467 9.4464C0.0212595 9.29153 -0.00546455 9.12656 0.000925937 8.96121Z" fill="#FFFCFC"/>
</svg>
