<svg width="41" height="40" viewBox="0 0 41 40" fill="none" xmlns="http://www.w3.org/2000/svg">
<path d="M37.0214 20.0015C37.0214 20.443 37.0093 20.8966 36.9729 21.3382C36.9608 21.553 36.9365 21.7797 36.9123 21.9946C36.9123 21.9826 36.8396 22.5197 36.8881 22.2452C36.9244 22.0065 36.8517 22.4481 36.8517 22.4958C36.7062 23.4029 36.4759 24.2861 36.1971 25.1573C36.0638 25.5631 35.9062 25.9569 35.7486 26.3508C35.6153 26.673 35.7123 26.4224 35.7486 26.3627C35.7002 26.4582 35.6638 26.5537 35.6153 26.6492C35.5062 26.8878 35.385 27.1265 35.2638 27.3652C34.8517 28.1529 34.3789 28.9168 33.8577 29.6448C33.7365 29.8119 33.6153 29.979 33.482 30.1461C33.7123 29.8596 33.3244 30.337 33.2759 30.3967C32.985 30.7309 32.682 31.065 32.3789 31.3873C32.0638 31.7095 31.7365 32.0079 31.4092 32.3063C31.2516 32.4495 31.0941 32.5808 30.9244 32.712C30.8395 32.7837 30.7547 32.8433 30.6819 32.9149C30.4274 33.1298 30.7789 32.8433 30.6092 32.9746C29.9062 33.4997 29.1789 33.9652 28.4031 34.3829C28.0031 34.5977 27.6031 34.8006 27.191 34.9916C27.094 35.0393 26.9971 35.0751 26.9001 35.1229C26.6455 35.2422 27.1546 35.0274 26.888 35.1229C26.6577 35.2184 26.4395 35.3019 26.2092 35.3854C25.3364 35.6957 24.4516 35.9464 23.5425 36.1254C23.3243 36.1731 23.1061 36.2089 22.8879 36.2448C22.7788 36.2567 22.6698 36.2806 22.5607 36.2925C22.9001 36.2448 22.6213 36.2806 22.5485 36.2925C22.0516 36.3522 21.5425 36.388 21.0334 36.4118C20.0758 36.4476 19.1182 36.3999 18.1606 36.2925C18.0879 36.2806 17.8091 36.2448 18.1485 36.2925C18.0394 36.2806 17.9303 36.2567 17.8212 36.2448C17.6031 36.2089 17.3849 36.1731 17.1667 36.1254C16.6818 36.0299 16.2091 35.9106 15.7364 35.7793C15.3242 35.6599 14.9121 35.5287 14.5 35.3854C14.2939 35.3138 14.1 35.2303 13.8939 35.1587C13.8333 35.1348 13.5788 35.0155 13.8818 35.1587C13.7606 35.1109 13.6394 35.0513 13.5182 34.9916C12.6939 34.6216 11.906 34.18 11.1424 33.6907C10.7909 33.4639 10.4394 33.2252 10.1 32.9627C9.88178 32.7956 10.306 33.1298 10.0878 32.9507C10.003 32.8791 9.91814 32.8195 9.84542 32.7478C9.63935 32.5808 9.44541 32.4137 9.23935 32.2346C8.59692 31.6618 7.97873 31.0412 7.42115 30.3728C7.37267 30.3131 6.98479 29.8357 7.21509 30.1222C7.08176 29.9551 6.96054 29.788 6.83933 29.6209C6.56054 29.239 6.29387 28.8452 6.05144 28.4394C5.83326 28.0813 5.6272 27.7113 5.43326 27.3414C5.33629 27.1504 5.23932 26.9595 5.15447 26.7685C5.10598 26.673 5.06962 26.5775 5.02113 26.4821C4.79083 26.0166 5.14235 26.8043 4.94841 26.3269C4.60901 25.4795 4.3181 24.6202 4.11204 23.7371C4.01506 23.3193 3.91809 22.8897 3.85749 22.46C3.84537 22.3526 3.82112 22.2452 3.809 22.1378C3.82112 22.2094 3.84537 22.4839 3.809 22.1259C3.77264 21.8514 3.7484 21.5768 3.72415 21.3023C3.65143 20.3834 3.66355 19.4644 3.73627 18.5454C3.76052 18.2948 3.78476 18.0561 3.809 17.8054C3.82112 17.7338 3.85749 17.4593 3.809 17.7935C3.82112 17.6861 3.84537 17.5787 3.85749 17.4713C3.93022 17.0177 4.02719 16.5642 4.13628 16.1226C4.35446 15.2395 4.64537 14.3802 4.98477 13.5328C5.09386 13.2702 4.87568 13.7715 4.98477 13.5208C5.03326 13.4254 5.06962 13.3299 5.1181 13.2344C5.20295 13.0435 5.29992 12.8525 5.39689 12.6615C5.60296 12.2677 5.82114 11.8738 6.05144 11.4919C6.28175 11.11 6.5363 10.74 6.79084 10.3701C6.91206 10.203 7.03327 10.0359 7.16661 9.86879C7.3363 9.65396 6.99691 10.0717 7.17873 9.85685C7.26358 9.76137 7.34842 9.65396 7.43327 9.55848C8.0151 8.8782 8.63328 8.24565 9.31208 7.64891C9.46965 7.50569 9.62723 7.37441 9.79693 7.24313C9.85754 7.19539 10.3424 6.81347 10.0515 7.04024C10.4272 6.7538 10.8272 6.4793 11.2272 6.22867C11.9909 5.73934 12.7788 5.30969 13.6151 4.93971C13.7121 4.89197 13.8091 4.85616 13.9061 4.80842C13.8454 4.83229 13.5909 4.92777 13.9182 4.80842C14.1242 4.72488 14.3182 4.65327 14.5242 4.58166C14.9606 4.42651 15.397 4.28329 15.8333 4.16394C16.2818 4.04459 16.7303 3.93718 17.1909 3.8417C17.4091 3.79396 17.6273 3.75816 17.8455 3.72235C17.9546 3.71042 18.0637 3.68655 18.1728 3.67461C17.9061 3.71042 18.1243 3.68655 18.2697 3.66268C19.2273 3.55527 20.1849 3.51946 21.1425 3.55527C21.591 3.57914 22.0394 3.60301 22.4879 3.66268C22.5364 3.66268 22.8879 3.71042 22.6576 3.68655C22.4273 3.65075 22.7788 3.71042 22.8273 3.71042C23.0698 3.74622 23.3122 3.79396 23.5546 3.8417C24.4637 4.02072 25.3607 4.27136 26.2213 4.58166C26.4274 4.65327 26.6213 4.73681 26.8274 4.80842C27.1546 4.93971 26.9001 4.84423 26.8395 4.80842C26.9365 4.85616 27.0334 4.89197 27.1304 4.93971C27.5668 5.13066 28.0031 5.34549 28.4153 5.58419C29.2031 6.01384 29.9668 6.50317 30.6819 7.04024C30.391 6.81347 30.8759 7.19539 30.9365 7.24313C31.0941 7.37441 31.2638 7.51763 31.4213 7.64891C31.7729 7.95922 32.1244 8.29339 32.4517 8.62757C32.7426 8.92594 33.0214 9.23624 33.3001 9.55848C33.3729 9.64203 33.7244 10.0836 33.5062 9.80911C33.6638 10.012 33.8214 10.2268 33.9789 10.4417C34.488 11.1458 34.9365 11.8977 35.3365 12.6615C35.4335 12.8525 35.5305 13.0435 35.6153 13.2344C35.6638 13.3299 35.7002 13.4254 35.7486 13.5208C35.8699 13.7715 35.6517 13.2702 35.7486 13.5328C35.9305 13.9744 36.1002 14.4279 36.2456 14.8814C36.5244 15.7288 36.7305 16.6 36.8759 17.4713C36.8881 17.5787 36.9123 17.6861 36.9244 17.7935C36.8759 17.4355 36.9244 17.7935 36.9365 17.889C36.9608 18.1038 36.985 18.3306 36.9971 18.5454C36.9971 19.0586 37.0214 19.536 37.0214 20.0015C37.0214 20.9324 37.8578 21.8394 38.8396 21.7917C39.8214 21.7439 40.6578 21.004 40.6578 20.0015C40.6214 11.6113 35.2153 4.0804 27.2274 1.18024C19.3606 -1.68412 10.0515 0.798322 4.73022 7.18345C2.02717 10.4178 0.415037 14.3205 0.0635187 18.4977C-0.275878 22.6032 0.754433 26.8282 2.92415 30.3489C5.00901 33.7265 8.13631 36.5312 11.7969 38.1663C15.7849 39.9445 20.1849 40.4458 24.4758 39.5984C32.5244 37.9992 39.1063 31.3037 40.3669 23.2955C40.5366 22.2094 40.6457 21.1114 40.6457 20.0134C40.6457 19.0825 39.8093 18.1754 38.8275 18.2232C37.8456 18.259 37.0214 18.9989 37.0214 20.0015Z" fill="#0568EA"/>
<path d="M18.4639 13.7356C18.4639 17.4593 18.4639 21.1949 18.4639 24.9186C18.4639 25.4437 18.4639 25.9808 18.4639 26.5059C18.4639 27.4368 19.3002 28.3439 20.2821 28.2961C21.2639 28.2484 22.1003 27.5084 22.1003 26.5059C22.1003 22.7822 22.1003 19.0466 22.1003 15.323C22.1003 14.7978 22.1003 14.2608 22.1003 13.7356C22.1003 12.8047 21.2639 11.8977 20.2821 11.9454C19.3002 11.9931 18.4639 12.7331 18.4639 13.7356Z" fill="#0568EA"/>
<path d="M13.7972 21.911C17.579 21.911 21.373 21.911 25.1549 21.911C25.6882 21.911 26.2337 21.911 26.767 21.911C27.7125 21.911 28.6337 21.0875 28.5852 20.1208C28.5367 19.1541 27.7852 18.3306 26.767 18.3306C22.9852 18.3306 19.1912 18.3306 15.4093 18.3306C14.876 18.3306 14.3305 18.3306 13.7972 18.3306C12.8517 18.3306 11.9305 19.1541 11.979 20.1208C12.0275 21.0875 12.779 21.911 13.7972 21.911Z" fill="#0568EA"/>
</svg>
