<svg width="25" height="25" viewBox="0 0 18 16" fill="none" xmlns="http://www.w3.org/2000/svg">
<path d="M4.53062 1.47799C5.56653 1.47799 6.40927 2.32073 6.40927 3.35679C6.40927 4.39286 5.56653 5.2356 4.53062 5.2356C3.49455 5.2356 2.65182 4.39286 2.65182 3.35679C2.65182 2.32073 3.49455 1.47799 4.53062 1.47799ZM4.53062 1.00024C3.22909 1.00024 2.17407 2.05526 2.17407 3.35679C2.17407 4.65832 3.22909 5.71334 4.53062 5.71334C5.83199 5.71334 6.88701 4.65832 6.88701 3.35679C6.88701 2.05526 5.83199 1.00024 4.53062 1.00024Z" fill="#B2AFAF" stroke="#B2AFAF"/>
<path d="M4.53052 6.91939C6.21361 6.91939 7.58298 8.28892 7.58298 9.97201V14.7283H1.47774V9.97201C1.47774 8.28892 2.84727 6.91939 4.53052 6.91939ZM4.53052 6.44165C2.58053 6.44165 1 8.02234 1 9.97201V15.206H8.06073V9.97201C8.06089 8.02234 6.48019 6.44165 4.53052 6.44165Z" fill="#B2AFAF" stroke="#B2AFAF"/>
<path d="M13.4479 1.47799C14.484 1.47799 15.3271 2.32073 15.3271 3.35679C15.3271 4.39286 14.4842 5.2356 13.4479 5.2356C12.4119 5.2356 11.5693 4.39286 11.5693 3.35679C11.5695 2.32073 12.4124 1.47799 13.4479 1.47799ZM13.4479 1.00024C12.1466 1.00024 11.0916 2.05526 11.0916 3.35679C11.0916 4.65832 12.1466 5.71334 13.4479 5.71334C14.7496 5.71334 15.8048 4.65832 15.8048 3.35679C15.8048 2.05526 14.7496 1.00024 13.4479 1.00024Z" fill="#B2AFAF" stroke="#B2AFAF"/>
<path d="M13.4476 6.91939C15.1308 6.91939 16.5003 8.28892 16.5003 9.97201V14.7283H10.3951V9.97201C10.3951 8.28892 11.7645 6.91939 13.4476 6.91939ZM13.4476 6.44165C11.4977 6.44165 9.91736 8.02234 9.91736 9.97201V15.206H16.9781V9.97201C16.9781 8.02234 15.3979 6.44165 13.4476 6.44165Z" fill="#B2AFAF" stroke="#B2AFAF"/>
</svg>
