<svg width="17" height="17" viewBox="0 0 17 17" fill="none" xmlns="http://www.w3.org/2000/svg">
<path d="M8.6 11V6.592H9.512V11H8.6ZM9.064 6.008C8.736 6.008 8.48 5.752 8.48 5.424C8.48 5.096 8.736 4.84 9.064 4.84C9.384 4.84 9.64 5.096 9.64 5.424C9.64 5.752 9.384 6.008 9.064 6.008Z" fill="#646262"/>
<path d="M15.4795 8.50062C15.4795 8.68829 15.4745 8.88104 15.4593 9.06872C15.4542 9.16002 15.4441 9.25639 15.4339 9.34769C15.4339 9.34262 15.4035 9.57087 15.4238 9.45421C15.439 9.35276 15.4086 9.54044 15.4086 9.56073C15.3478 9.94622 15.2515 10.3216 15.1349 10.6919C15.0791 10.8643 15.0133 11.0317 14.9474 11.1991C14.8916 11.336 14.9322 11.2295 14.9474 11.2042C14.9271 11.2447 14.9119 11.2853 14.8916 11.3259C14.846 11.4273 14.7953 11.5288 14.7446 11.6302C14.5723 11.965 14.3747 12.2896 14.1567 12.599C14.1061 12.67 14.0554 12.7411 13.9996 12.8121C14.0959 12.6903 13.9337 12.8932 13.9135 12.9186C13.7918 13.0606 13.6651 13.2026 13.5384 13.3396C13.4066 13.4765 13.2698 13.6034 13.133 13.7302C13.0671 13.791 13.0012 13.8468 12.9302 13.9026C12.8947 13.9331 12.8593 13.9584 12.8289 13.9888C12.7224 14.0801 12.8694 13.9584 12.7985 14.0142C12.5045 14.2374 12.2004 14.4352 11.876 14.6127C11.7088 14.704 11.5415 14.7903 11.3692 14.8714C11.3287 14.8917 11.2881 14.9069 11.2476 14.9272C11.1411 14.9779 11.354 14.8866 11.2425 14.9272C11.1462 14.9678 11.055 15.0033 10.9587 15.0388C10.5938 15.1707 10.2238 15.2772 9.84368 15.3533C9.75246 15.3736 9.66123 15.3888 9.57 15.404C9.52439 15.4091 9.47877 15.4192 9.43316 15.4243C9.57507 15.404 9.4585 15.4192 9.42809 15.4243C9.22029 15.4497 9.00743 15.4649 8.79456 15.475C8.39418 15.4902 7.99379 15.47 7.5934 15.4243C7.56299 15.4192 7.44642 15.404 7.58833 15.4243C7.54272 15.4192 7.4971 15.4091 7.45149 15.404C7.36026 15.3888 7.26903 15.3736 7.17781 15.3533C6.97508 15.3127 6.77742 15.262 6.57976 15.2062C6.40744 15.1555 6.23512 15.0997 6.0628 15.0388C5.97664 15.0084 5.89555 14.9729 5.80939 14.9424C5.78405 14.9323 5.67761 14.8816 5.80432 14.9424C5.75364 14.9222 5.70296 14.8968 5.65227 14.8714C5.30764 14.7142 4.9782 14.5265 4.6589 14.3185C4.51193 14.2222 4.36495 14.1207 4.22304 14.0091C4.13181 13.9381 4.3092 14.0801 4.21797 14.0041C4.18249 13.9736 4.14701 13.9483 4.11661 13.9178C4.03045 13.8468 3.94935 13.7758 3.8632 13.6997C3.59458 13.4563 3.3361 13.1925 3.10296 12.9084C3.08269 12.8831 2.92051 12.6802 3.0168 12.8019C2.96105 12.7309 2.91037 12.6599 2.85969 12.5889C2.74312 12.4266 2.63162 12.2592 2.53026 12.0867C2.43903 11.9346 2.35287 11.7773 2.27178 11.6201C2.23123 11.5389 2.19068 11.4578 2.15521 11.3766C2.13493 11.336 2.11973 11.2955 2.09946 11.2549C2.00316 11.0571 2.15014 11.3918 2.06905 11.1889C1.92714 10.8288 1.8055 10.4636 1.71934 10.0882C1.6788 9.91072 1.63825 9.72811 1.61291 9.54551C1.60784 9.49986 1.5977 9.45421 1.59264 9.40856C1.5977 9.43899 1.60784 9.55566 1.59264 9.40349C1.57743 9.28682 1.5673 9.17016 1.55716 9.0535C1.52675 8.66293 1.53182 8.27236 1.56223 7.8818C1.57236 7.77528 1.5825 7.67383 1.59264 7.56731C1.5977 7.53688 1.61291 7.42022 1.59264 7.56224C1.5977 7.51659 1.60784 7.47094 1.61291 7.42529C1.64332 7.23254 1.68386 7.0398 1.72948 6.85212C1.82071 6.47677 1.94234 6.11156 2.08425 5.75143C2.12987 5.63984 2.03864 5.85288 2.08425 5.74636C2.10453 5.70578 2.11973 5.6652 2.14 5.62462C2.17548 5.54347 2.21603 5.46231 2.25657 5.38115C2.34273 5.21377 2.43396 5.04638 2.53026 4.88407C2.62655 4.72175 2.73298 4.56451 2.83942 4.40727C2.8901 4.33626 2.94078 4.26525 2.99653 4.19424C3.06749 4.10293 2.92558 4.28046 3.0016 4.18916C3.03708 4.14858 3.07255 4.10293 3.10803 4.06236C3.35131 3.77323 3.60978 3.5044 3.8936 3.25079C3.95949 3.18992 4.02538 3.13412 4.09633 3.07833C4.12167 3.05804 4.3244 2.89573 4.20277 2.9921C4.35988 2.87036 4.52713 2.7537 4.69438 2.64718C5.01368 2.43922 5.34311 2.25662 5.69282 2.09938C5.73337 2.07909 5.77391 2.06387 5.81446 2.04358C5.78912 2.05372 5.68268 2.0943 5.81952 2.04358C5.90568 2.00807 5.98678 1.97764 6.07294 1.94721C6.25539 1.88127 6.43785 1.8204 6.6203 1.76968C6.80783 1.71895 6.99535 1.6733 7.18794 1.63272C7.27917 1.61243 7.3704 1.59722 7.46162 1.582C7.50724 1.57693 7.55285 1.56678 7.59847 1.56171C7.48697 1.57693 7.57819 1.56678 7.63901 1.55664C8.0394 1.51099 8.43979 1.49577 8.84018 1.51099C9.0277 1.52113 9.21523 1.53128 9.40275 1.55664C9.42302 1.55664 9.57 1.57693 9.47371 1.56678C9.37741 1.55157 9.52439 1.57693 9.54466 1.57693C9.64602 1.59215 9.74739 1.61243 9.84875 1.63272C10.2289 1.70881 10.6039 1.81533 10.9638 1.94721C11.0499 1.97764 11.131 2.01315 11.2172 2.04358C11.354 2.09937 11.2476 2.0588 11.2222 2.04358C11.2628 2.06387 11.3033 2.07909 11.3439 2.09938C11.5263 2.18053 11.7088 2.27183 11.8811 2.37328C12.2105 2.55588 12.5298 2.76385 12.8289 2.9921C12.7072 2.89573 12.91 3.05804 12.9353 3.07833C13.0012 3.13412 13.0721 3.19499 13.138 3.25079C13.285 3.38267 13.432 3.52469 13.5688 3.66672C13.6905 3.79352 13.807 3.9254 13.9236 4.06236C13.954 4.09786 14.101 4.28554 14.0098 4.16887C14.0756 4.2551 14.1415 4.3464 14.2074 4.43771C14.4203 4.73697 14.6078 5.05653 14.7751 5.38115C14.8156 5.46231 14.8561 5.54347 14.8916 5.62462C14.9119 5.6652 14.9271 5.70578 14.9474 5.74636C14.9981 5.85288 14.9068 5.63984 14.9474 5.75143C15.0234 5.93911 15.0944 6.13185 15.1552 6.3246C15.2717 6.68474 15.3579 7.05501 15.4187 7.42529C15.4238 7.47094 15.4339 7.51659 15.439 7.56224C15.4187 7.41007 15.439 7.56224 15.4441 7.60282C15.4542 7.69412 15.4643 7.7905 15.4694 7.8818C15.4694 8.09991 15.4795 8.3028 15.4795 8.50062C15.4795 8.89626 15.8292 9.28175 16.2398 9.26146C16.6503 9.24117 17 8.92669 17 8.50062C16.9848 4.93479 14.7244 1.73417 11.3844 0.5016C8.09515 -0.715752 4.20276 0.339287 1.97782 3.05297C0.847609 4.42756 0.173537 6.0862 0.0265587 7.86151C-0.115351 9.60638 0.315447 11.402 1.22266 12.8983C2.09439 14.3338 3.40199 15.5258 4.93259 16.2207C6.60003 16.9764 8.43979 17.1895 10.2339 16.8293C13.5992 16.1496 16.3513 13.3041 16.8784 9.90057C16.9493 9.43899 16.9949 8.97234 16.9949 8.50569C16.9949 8.11005 16.6452 7.72456 16.2347 7.74485C15.8242 7.76006 15.4795 8.07454 15.4795 8.50062Z" fill="#646262"/>
</svg>
