<svg width="10" height="18" viewBox="0 0 10 18" fill="none" xmlns="http://www.w3.org/2000/svg">
<path d="M9.9262 9.03879C9.91901 9.34609 9.79807 9.6398 9.58679 9.86305L2.13918 17.621C1.91002 17.8577 1.59635 17.9939 1.26691 17.9998C0.937471 18.0057 0.619157 17.8807 0.381721 17.6522C0.144286 17.4238 0.00709434 17.1105 0.000246948 16.7811C-0.00660045 16.4517 0.117449 16.133 0.345186 15.8949L6.9685 9L0.345186 2.10515C0.117448 1.86703 -0.0066011 1.54833 0.000246268 1.21891C0.00709364 0.889494 0.144285 0.576228 0.381721 0.347779C0.619156 0.11933 0.937471 -0.00566443 1.26691 0.000196835C1.59635 0.0060581 1.91002 0.142294 2.13918 0.379044L9.58679 8.13695C9.70062 8.25706 9.78929 8.39872 9.84758 8.5536C9.90586 8.70847 9.93259 8.87344 9.9262 9.03879Z" fill="#646262"/>
</svg>
