<svg width="36" height="32" viewBox="0 0 36 32" fill="none" xmlns="http://www.w3.org/2000/svg">
<path d="M23.0652 23.6524C21.326 26.348 17.5434 28.2176 13.1956 28.2176C11.2826 28.2176 9.41299 27.8698 7.76082 27.1741C7.49995 27.0437 7.1956 27.1306 7.02169 27.348L5.28256 28.6524L5.8043 26.8698C5.93473 26.5654 5.84778 26.2176 5.58691 26.0437C3.41299 24.5219 2.1956 22.4785 2.1956 20.3046C2.1956 18.1741 3.32604 16.2611 5.1956 14.8263C5.10865 14.6089 5.02169 14.3915 4.93473 14.2176C4.84778 14.0002 4.8043 13.7828 4.71734 13.5654C2.32604 15.2611 0.847778 17.6524 0.847778 20.3046C0.847778 22.7393 2.10865 25.0872 4.36952 26.8263L3.45647 30.1306C3.36952 30.3915 3.45647 30.6959 3.71734 30.8698C3.84778 30.9567 3.97821 31.0002 4.10865 31.0002C4.23908 31.0002 4.36952 30.9567 4.49995 30.8698L7.63038 28.5219C9.36952 29.1741 11.2826 29.5219 13.1956 29.5219C18.4565 29.5219 22.9347 27.0002 24.6739 23.4785C24.413 23.5219 24.1521 23.5654 23.8912 23.5654C23.6304 23.6089 23.3695 23.6524 23.0652 23.6524Z" fill="url(#paint0_linear_47_1434)" stroke="url(#paint1_linear_47_1434)"/>
<path d="M35.0217 12.6087C35.0217 6.21739 28.1087 1 19.6739 1C11.1956 1 4.32605 6.21739 4.32605 12.6087C4.32605 13.3478 4.41301 14.0435 4.58692 14.7391C4.6304 14.9565 4.71736 15.1739 4.76084 15.3913C4.84779 15.6087 4.89127 15.7826 4.97823 16C6.93475 20.6956 12.7608 24.1739 19.6739 24.1739C20.5 24.1739 21.3695 24.1304 22.1956 24C22.413 23.9565 22.6739 23.9565 22.8913 23.913C23.1087 23.8696 23.3695 23.8261 23.5869 23.7826C24.6739 23.5652 25.7608 23.2609 26.8043 22.8696L30.8478 25.913C30.9782 26 31.1087 26.0435 31.2391 26.0435C31.3695 26.0435 31.5 26 31.6304 25.913C31.8478 25.7391 31.9782 25.4783 31.8913 25.1739L30.5869 20.7826C33.3695 18.6087 35.0217 15.6522 35.0217 12.6087ZM29.3695 20C29.1087 20.1739 29.0217 20.5217 29.1521 20.8261L30.0217 23.6522L27.4565 21.6956C27.2826 21.4783 26.9782 21.3478 26.6739 21.4783C25.7608 21.8696 24.7608 22.1739 23.7174 22.3913C23.5 22.4348 23.2826 22.4783 23.0652 22.5217C22.8478 22.5652 22.6304 22.6087 22.413 22.6522C21.5 22.7826 20.6304 22.8696 19.6739 22.8696C13.2826 22.8696 7.89127 19.7391 6.19562 15.4348C6.10866 15.2174 6.06518 15.0435 5.97823 14.8261C5.93475 14.6087 5.84779 14.3913 5.80431 14.2174C5.67388 13.6956 5.6304 13.1739 5.6304 12.6087C5.6304 6.95652 11.9347 2.34783 19.6739 2.34783C27.413 2.34783 33.7173 6.95652 33.7173 12.6087C33.7173 15.3913 32.1521 18.0435 29.3695 20Z" fill="url(#paint2_linear_47_1434)" stroke="url(#paint3_linear_47_1434)"/>
<defs>
<linearGradient id="paint0_linear_47_1434" x1="12.7608" y1="13.5654" x2="12.7608" y2="31.0002" gradientUnits="userSpaceOnUse">
<stop stop-color="#0C65EB"/>
<stop offset="1" stop-color="#E303FE"/>
</linearGradient>
<linearGradient id="paint1_linear_47_1434" x1="12.7608" y1="13.5654" x2="12.7608" y2="31.0002" gradientUnits="userSpaceOnUse">
<stop stop-color="#1162EB"/>
<stop offset="1" stop-color="#DD06FE"/>
</linearGradient>
<linearGradient id="paint2_linear_47_1434" x1="19.6739" y1="1" x2="19.6739" y2="26.0435" gradientUnits="userSpaceOnUse">
<stop stop-color="#0D64EB"/>
<stop offset="1" stop-color="#DE05FE"/>
</linearGradient>
<linearGradient id="paint3_linear_47_1434" x1="19.6739" y1="1" x2="19.6739" y2="26.0435" gradientUnits="userSpaceOnUse">
<stop stop-color="#0D64EB"/>
<stop offset="1" stop-color="#E104FE"/>
</linearGradient>
</defs>
</svg>
