<svg width="37" height="31" viewBox="0 0 37 31" fill="none" xmlns="http://www.w3.org/2000/svg">
<path d="M36.0217 12.6087C36.0217 6.21739 29.1087 1 20.6739 1C12.1956 1 5.32605 6.21739 5.32605 12.6087C5.32605 13.3478 5.41301 14.0435 5.58692 14.7391C5.6304 14.9565 5.71736 15.1739 5.76084 15.3913C5.84779 15.6087 5.89127 15.7826 5.97823 16C7.93475 20.6956 13.7608 24.1739 20.6739 24.1739C21.5 24.1739 22.3695 24.1304 23.1956 24C23.413 23.9565 23.6739 23.9565 23.8913 23.913C24.1087 23.8696 24.3695 23.8261 24.5869 23.7826C25.6739 23.5652 26.7608 23.2609 27.8043 22.8696L31.8478 25.913C31.9782 26 32.1087 26.0435 32.2391 26.0435C32.3695 26.0435 32.5 26 32.6304 25.913C32.8478 25.7391 32.9782 25.4783 32.8913 25.1739L31.5869 20.7826C34.3695 18.6087 36.0217 15.6522 36.0217 12.6087ZM30.3695 20C30.1087 20.1739 30.0217 20.5217 30.1521 20.8261L31.0217 23.6522L28.4565 21.6956C28.2826 21.4783 27.9782 21.3478 27.6739 21.4783C26.7608 21.8696 25.7608 22.1739 24.7174 22.3913C24.5 22.4348 24.2826 22.4783 24.0652 22.5217C23.8478 22.5652 23.6304 22.6087 23.413 22.6522C22.5 22.7826 21.6304 22.8696 20.6739 22.8696C14.2826 22.8696 8.89127 19.7391 7.19562 15.4348C7.10866 15.2174 7.06518 15.0435 6.97823 14.8261C6.93475 14.6087 6.84779 14.3913 6.80431 14.2174C6.67388 13.6956 6.6304 13.1739 6.6304 12.6087C6.6304 6.95652 12.9347 2.34783 20.6739 2.34783C28.413 2.34783 34.7173 6.95652 34.7173 12.6087C34.7173 15.3913 33.1521 18.0435 30.3695 20Z" fill="#646262" stroke="#646262"/>
<path d="M23.2174 23.087C21.4783 25.7826 17.6956 27.6522 13.3478 27.6522C11.4348 27.6522 9.56521 27.3043 7.91304 26.6087C7.65217 26.4783 7.34782 26.5652 7.17391 26.7826L5.43478 28.087L5.95652 26.3043C6.08695 26 6 25.6522 5.73913 25.4783C3.56522 23.9565 2.34783 21.913 2.34783 19.7391C2.34783 17.6087 3.47826 15.6957 5.34782 14.2609C5.26087 14.0435 5.17391 13.8261 5.08696 13.6522C5 13.4348 4.95652 13.2174 4.86956 13C2.47826 14.6957 1 17.087 1 19.7391C1 22.1739 2.26087 24.5217 4.52174 26.2609L3.60869 29.5652C3.52174 29.8261 3.6087 30.1304 3.86956 30.3043C4 30.3913 4.13043 30.4348 4.26087 30.4348C4.3913 30.4348 4.52174 30.3913 4.65217 30.3043L7.78261 27.9565C9.52174 28.6087 11.4348 28.9565 13.3478 28.9565C18.6087 28.9565 23.087 26.4348 24.8261 22.913C24.5652 22.9565 24.3043 23 24.0435 23C23.7826 23.0435 23.5217 23.087 23.2174 23.087Z" fill="#646262" stroke="#646262"/>
</svg>
