<svg width="22" height="22" viewBox="0 0 22 22" fill="none" xmlns="http://www.w3.org/2000/svg">
<path d="M18.5606 7.69232C17.623 3.5665 14.024 1.70898 10.8627 1.70898C10.8627 1.70898 10.8627 1.70898 10.8538 1.70898C7.70134 1.70898 4.09348 3.55757 3.1558 7.68339C2.11094 12.2914 4.93293 16.194 7.48701 18.6499C8.43363 19.5607 9.64816 20.0162 10.8627 20.0162C12.0772 20.0162 13.2917 19.5607 14.2294 18.6499C16.7835 16.194 19.6055 12.3004 18.5606 7.69232ZM10.8627 12.1664C9.3088 12.1664 8.04963 10.9072 8.04963 9.35336C8.04963 7.79948 9.3088 6.5403 10.8627 6.5403C12.4166 6.5403 13.6757 7.79948 13.6757 9.35336C13.6757 10.9072 12.4166 12.1664 10.8627 12.1664Z" fill="#FBFDFF"/>
</svg>
