<svg width="20" height="20" viewBox="0 0 15 15" fill="none" xmlns="http://www.w3.org/2000/svg">
<circle cx="7.5" cy="7.5" r="7.5" fill="#B2AFAF"/>
<path d="M7.9928 4.79591C8.48873 4.79591 8.89076 4.39388 8.89076 3.89795C8.89076 3.40203 8.48873 3 7.9928 3C7.49688 3 7.09485 3.40203 7.09485 3.89795C7.09485 4.39388 7.49688 4.79591 7.9928 4.79591Z" fill="#FFFBFB"/>
<path d="M10.6029 6.58972C10.5395 6.41176 10.3472 6.3146 10.1662 6.36881L9.38993 6.60199L8.3488 5.29188C8.2138 5.10063 7.99187 4.98608 7.75766 4.98608H7.53266C7.4038 4.98608 7.27903 5.02188 7.16959 5.08938L5.67948 5.99449C5.56698 6.06506 5.50255 6.19188 5.51278 6.32483L5.5946 7.36597C5.60891 7.55108 5.76437 7.69426 5.94948 7.69426C5.95255 7.69426 5.95562 7.69426 5.95766 7.69426C6.14687 7.69017 6.29925 7.53881 6.30437 7.3496L6.32891 6.56108L6.72982 6.41892L6.6705 7.92642C6.65925 8.20972 6.76971 8.48483 6.97221 8.68324L8.31811 9.99539L9.02482 11.776C9.08005 11.9151 9.213 11.9999 9.35516 11.9999C9.39095 11.9999 9.42675 11.9948 9.46152 11.9836C9.63948 11.9273 9.74379 11.7443 9.70084 11.5632L9.23755 9.58937C9.2263 9.54233 9.20584 9.49733 9.1772 9.45846L8.23732 8.19233L8.37232 6.65824L8.89902 7.37108C8.99618 7.50301 9.17005 7.55108 9.32141 7.48869L10.4035 7.03972C10.5783 6.9671 10.6653 6.76972 10.6019 6.59176L10.6029 6.58972Z" fill="#FFFBFB"/>
<path d="M6.83409 8.82948C6.83409 8.82948 6.83205 8.82744 6.83103 8.82642L6.17341 10.067L4.40614 9.81641C4.22205 9.78982 4.04819 9.9105 4.0083 10.0926C3.96842 10.2746 4.0758 10.4566 4.25376 10.5098L6.39944 11.15C6.43319 11.1603 6.46694 11.1654 6.50069 11.1654C6.61421 11.1654 6.72364 11.1112 6.79114 11.014L7.71977 9.69471L6.83205 8.83051L6.83409 8.82948Z" fill="#FFFBFB"/>
</svg>
