<svg width="12" height="9" viewBox="0 0 12 9" fill="none" xmlns="http://www.w3.org/2000/svg">
<path d="M11.9632 4.5194C11.9596 4.67305 11.8991 4.8199 11.7935 4.93153L8.06965 8.81048C7.95507 8.92885 7.79824 8.99697 7.63352 8.9999C7.4688 9.00283 7.30964 8.94034 7.19092 8.82611C7.0722 8.71189 7.00361 8.55525 7.00018 8.39054C6.99676 8.22583 7.05879 8.06649 7.17265 7.94743L10.4843 4.5L7.17265 1.05257C7.05879 0.933515 6.99676 0.774166 7.00018 0.609457C7.00361 0.444747 7.0722 0.288114 7.19092 0.173889C7.30964 0.0596647 7.4688 -0.00283247 7.63352 9.81768e-05C7.79824 0.00302882 7.95507 0.0711469 8.06965 0.189522L11.7935 4.06847C11.8504 4.12853 11.8947 4.19936 11.9238 4.2768C11.953 4.35423 11.9664 4.43672 11.9632 4.5194Z" fill="#FFFBFB"/>
<rect y="4" width="11" height="1" fill="#FFFDFD"/>
</svg>
