<svg width="26" height="22" viewBox="0 0 31 27" fill="none" xmlns="http://www.w3.org/2000/svg">
<path d="M15 8.14531C16.2176 8.14531 17.3346 8.5261 18.2443 9.16543C19.1916 9.83107 19.9143 10.7767 20.2939 11.865C20.4866 12.4169 20.7723 12.8911 21.1429 13.2781C21.5153 13.6674 21.979 13.9767 22.5241 14.1975C23.6762 14.6642 24.6541 15.448 25.3357 16.45C25.9924 17.416 26.375 18.5806 26.375 19.8552C26.375 21.5491 25.6742 23.0856 24.5417 24.1987C23.4108 25.3121 21.8471 26 20.1209 26C19.5294 26 18.9538 25.9181 18.4075 25.7655L18.377 25.7563C17.8274 25.6 17.3079 25.3699 16.831 25.0795C16.2569 24.7299 15.6277 24.5543 15 24.5543C14.3757 24.5517 13.7465 24.7276 13.1698 25.0792C12.6838 25.3747 12.1527 25.6081 11.5913 25.7648C11.0455 25.9181 10.4698 26 9.87948 26C8.15593 26 6.59297 25.3118 5.46014 24.1998L5.45675 24.1961C4.32543 23.0834 3.62576 21.548 3.62576 19.8552C3.62576 18.5806 4.00839 17.416 4.66509 16.45C5.34629 15.4484 6.3238 14.6642 7.47585 14.1975C8.02097 13.9767 8.48465 13.6674 8.85711 13.2781C9.22768 12.8911 9.51343 12.4169 9.70607 11.865C10.0857 10.7767 10.8084 9.83107 11.7557 9.16543C12.6654 8.5261 13.7824 8.14531 15 8.14531ZM17.5062 10.1848C16.8065 9.6929 15.944 9.40028 15 9.40028C14.056 9.40028 13.1935 9.6929 12.4938 10.1848C11.7644 10.6971 11.2072 11.4287 10.9132 12.2717C10.6621 12.9903 10.2825 13.6156 9.78448 14.136C9.28875 14.6539 8.67653 15.0635 7.9599 15.3539C7.04233 15.7258 6.26349 16.3492 5.72214 17.1456C5.20493 17.9068 4.90296 18.8332 4.90296 19.8552C4.90296 21.2072 5.45939 22.4303 6.35811 23.313C7.25871 24.1983 8.5035 24.745 9.87948 24.745C10.3541 24.745 10.8121 24.6806 11.2426 24.5602C11.6931 24.4354 12.1161 24.2498 12.5018 24.0153C13.2821 23.5401 14.1401 23.3015 15 23.3019C15.8573 23.2993 16.7156 23.5386 17.499 24.0157C17.8767 24.2457 18.2903 24.4287 18.7291 24.5532L18.7566 24.5602C19.1871 24.6806 19.6455 24.745 20.1209 24.745C21.4954 24.745 22.7402 24.1976 23.6404 23.313C24.5414 22.4303 25.0978 21.2072 25.0978 19.8552C25.0978 18.8332 24.7958 17.9068 24.2786 17.1456C23.7369 16.3496 22.9584 15.7262 22.0401 15.3539C21.3235 15.0635 20.7112 14.6539 20.2155 14.136C19.7175 13.6156 19.3379 12.9903 19.0868 12.2717C18.7928 11.4287 18.2356 10.6971 17.5062 10.1848ZM0.856083 7.94233C1.57913 7.33077 2.62563 7.24706 3.67891 7.50376C4.78949 7.77453 5.93966 8.43535 6.6759 9.23174C7.38689 10.0015 7.62061 10.7753 7.5226 11.5246C7.4129 12.3599 6.88588 13.1111 6.15567 13.763L6.11646 13.7952C5.45072 14.3801 4.71938 14.7916 3.95184 14.872C3.12023 14.9594 2.29125 14.6727 1.51693 13.8345C0.778425 13.0374 0.219741 11.8487 0.0527384 10.7378C-0.108609 9.66068 0.0881745 8.62463 0.810845 7.979L0.856083 7.94233ZM3.37431 8.71946C2.70027 8.55536 2.06845 8.57314 1.69336 8.8817L1.66885 8.90503C1.2979 9.23655 1.21158 9.86589 1.31487 10.5563C1.44681 11.4357 1.88373 12.3706 2.45825 12.9925C2.92156 13.4974 3.38072 13.673 3.81689 13.6274C4.29263 13.5774 4.78836 13.2859 5.26675 12.8666L5.29766 12.837C5.82129 12.3695 6.19488 11.868 6.26047 11.3675C6.31174 10.9745 6.16509 10.5419 5.73345 10.0748C5.15743 9.45176 4.2523 8.93355 3.37431 8.71946ZM28.3066 8.8817C27.9315 8.57314 27.2997 8.55536 26.6257 8.71946C25.7477 8.93355 24.8426 9.45176 24.2665 10.0748C23.8349 10.5419 23.6883 10.9745 23.7395 11.3675C23.8051 11.868 24.1787 12.3695 24.7023 12.837L24.7332 12.8666C25.2116 13.2859 25.7074 13.5774 26.1831 13.6274C26.6193 13.673 27.0784 13.4974 27.5418 12.9951C28.1163 12.3706 28.5532 11.4357 28.6851 10.5563C28.7884 9.86589 28.7021 9.23655 28.3311 8.90503L28.3066 8.8817ZM26.3211 7.50376C27.3744 7.24706 28.4209 7.33077 29.1439 7.94233L29.1892 7.979C29.9118 8.62463 30.1086 9.66068 29.9473 10.7378C29.7803 11.8487 29.2216 13.0374 28.4842 13.8356C27.7088 14.6727 26.8798 14.9594 26.0482 14.872C25.2806 14.7916 24.5493 14.3801 23.8835 13.7952L23.8443 13.763C23.1141 13.1111 22.5871 12.3599 22.4774 11.5246C22.3794 10.7753 22.6131 10.0015 23.3241 9.23174C24.0603 8.43535 25.2105 7.77453 26.3211 7.50376ZM21.2443 1.3397C20.6732 1.1093 19.9294 1.33896 19.2218 1.80457C18.3374 2.38649 17.5457 3.31623 17.1624 4.23263C16.8683 4.93605 16.8841 5.49056 17.1092 5.9232C17.3953 6.46734 18.0189 6.88331 18.7939 7.19668C19.5686 7.50931 20.309 7.64451 20.9024 7.45412C21.3728 7.30299 21.7811 6.91998 22.0752 6.21731C22.4582 5.30165 22.5615 4.09373 22.35 3.06805C22.18 2.24796 21.815 1.57047 21.2443 1.3397ZM18.5138 0.76593C19.5524 0.0825161 20.718 -0.224557 21.7283 0.183269C22.739 0.591465 23.3475 1.61492 23.5967 2.81839C23.8556 4.0741 23.7263 5.55946 23.2521 6.69292C22.7993 7.77527 22.1147 8.38275 21.2967 8.64537C20.3844 8.93837 19.347 8.77168 18.3099 8.35312C17.2728 7.93418 16.4171 7.33559 15.9779 6.49623C15.5851 5.74244 15.5334 4.83863 15.9854 3.75702C16.46 2.62281 17.4315 1.47824 18.5138 0.76593ZM8.27166 0.183269C9.28196 -0.224557 10.4476 0.0825161 11.4862 0.76593C12.5685 1.47824 13.54 2.62281 14.0146 3.75702C14.4666 4.83863 14.4149 5.74244 14.0221 6.49364C13.5829 7.33559 12.7272 7.93418 11.6901 8.35312C10.653 8.77168 9.61559 8.93837 8.7033 8.64537C7.88525 8.38275 7.20066 7.77527 6.74791 6.69292C6.27366 5.55946 6.14436 4.0741 6.40335 2.82062C6.65253 1.61492 7.26097 0.591465 8.27166 0.183269ZM10.7782 1.80457C10.0706 1.33896 9.32683 1.1093 8.7557 1.3397C8.18495 1.57047 7.82004 2.24796 7.6504 3.06805C7.43853 4.09373 7.54182 5.30165 7.92484 6.21731C8.21888 6.91998 8.62715 7.30299 9.09762 7.45412C9.69099 7.64451 10.4314 7.50931 11.2061 7.19668C11.9811 6.88331 12.6047 6.46734 12.8897 5.92283C13.1159 5.49056 13.1317 4.93605 12.8376 4.23263C12.4543 3.31623 11.6626 2.38649 10.7782 1.80457Z" fill="#B2AFAF"/>
<line x1="30.3201" y1="1.38411" x2="0.320094" y2="26.3841" stroke="#F10505"/>
</svg>
