<svg width="27" height="26" viewBox="0 0 31 26" fill="none" xmlns="http://www.w3.org/2000/svg">
<line x1="30.3201" y1="0.384111" x2="0.320094" y2="25.3841" stroke="#F10505"/>
<path d="M29.3107 10H0.689342C0.598669 9.99948 0.50879 10.0169 0.424915 10.0514C0.34104 10.0858 0.264836 10.1366 0.200719 10.2007C0.136602 10.2648 0.0858468 10.341 0.0513942 10.4249C0.0169416 10.5088 -0.000523034 10.5987 1.19279e-05 10.6893V15.2808C1.19279e-05 15.4637 0.0726374 15.639 0.201912 15.7683C0.331186 15.8976 0.50652 15.9702 0.689342 15.9702H29.3107C29.4935 15.9702 29.6688 15.8976 29.7981 15.7683C29.9274 15.639 30 15.4637 30 15.2808V10.6893C30.0005 10.5987 29.9831 10.5088 29.9486 10.4249C29.9142 10.341 29.8634 10.2648 29.7993 10.2007C29.7352 10.1366 29.659 10.0858 29.5751 10.0514C29.4912 10.0169 29.4013 9.99948 29.3107 10ZM1.9511 14.5915H1.36255V11.3666H1.9511V14.5915ZM3.96668 14.5915H3.4386V11.3666H3.95056L3.96668 14.5915ZM5.34535 11.3666H20.8452V14.5915H5.32922L5.34535 11.3666Z" fill="#B2AFAF"/>
</svg>
