<svg width="31" height="31" viewBox="0 0 31 31" fill="none" xmlns="http://www.w3.org/2000/svg">
<path d="M15.5 1C7.50348 1 1 7.50348 1 15.5C1 23.4965 7.50348 30 15.5 30C23.4965 30 30 23.4965 30 15.5C30 7.50348 23.4965 1 15.5 1ZM6.47788 25.435C7.13304 20.9775 10.9621 17.6481 15.5 17.6481C20.0379 17.6481 23.867 20.9777 24.5221 25.435C22.1377 27.6046 18.9693 28.9256 15.5 28.9256C12.0307 28.9256 8.86247 27.6045 6.47788 25.435ZM25.446 24.5113C24.6136 20.8327 21.821 17.9542 18.2712 16.9554C20.1348 15.9619 21.4129 13.9963 21.4129 11.7408C21.4129 8.481 18.7653 5.83328 15.5054 5.83328C12.2454 5.83328 9.59785 8.48083 9.59785 11.7408C9.59785 13.9963 10.8706 15.9618 12.7395 16.9554C9.18974 17.9543 6.39168 20.8327 5.56474 24.5113C3.4005 22.1269 2.08478 18.9636 2.08478 15.4998C2.08478 8.09413 8.10503 2.07423 15.5104 2.07423C22.9157 2.07423 28.936 8.09448 28.936 15.4998C28.936 18.9636 27.6149 22.1267 25.456 24.5113H25.446ZM15.5 16.5739C12.8363 16.5739 10.6669 14.4043 10.6669 11.7408C10.6669 9.07728 12.8365 6.90768 15.5 6.90768C18.1635 6.90768 20.3331 9.07728 20.3331 11.7408C20.3331 14.4043 18.1635 16.5739 15.5 16.5739Z" fill="#646262" stroke="#646262"/>
</svg>
