<svg width="29" height="29" viewBox="0 0 29 29" fill="none" xmlns="http://www.w3.org/2000/svg">
<path d="M14.5 0C6.50348 0 0 6.50348 0 14.5C0 22.4965 6.50348 29 14.5 29C22.4965 29 29 22.4965 29 14.5C29 6.50348 22.4965 0 14.5 0ZM5.47788 24.435C6.13304 19.9775 9.96213 16.6481 14.5 16.6481C19.0379 16.6481 22.867 19.9777 23.5221 24.435C21.1377 26.6046 17.9693 27.9256 14.5 27.9256C11.0307 27.9256 7.86247 26.6045 5.47788 24.435ZM24.446 23.5113C23.6136 19.8327 20.821 16.9542 17.2712 15.9554C19.1348 14.9619 20.4129 12.9963 20.4129 10.7408C20.4129 7.481 17.7653 4.83328 14.5054 4.83328C11.2454 4.83328 8.59785 7.48083 8.59785 10.7408C8.59785 12.9963 9.87061 14.9618 11.7395 15.9554C8.18974 16.9543 5.39168 19.8327 4.56474 23.5113C2.4005 21.1269 1.08478 17.9636 1.08478 14.4998C1.08478 7.09413 7.10503 1.07423 14.5104 1.07423C21.9157 1.07423 27.936 7.09448 27.936 14.4998C27.936 17.9636 26.6149 21.1267 24.456 23.5113H24.446ZM14.5 15.5739C11.8363 15.5739 9.66689 13.4043 9.66689 10.7408C9.66689 8.07728 11.8365 5.90768 14.5 5.90768C17.1635 5.90768 19.3331 8.07728 19.3331 10.7408C19.3331 13.4043 17.1635 15.5739 14.5 15.5739Z" fill="url(#paint0_linear_9_102)"/>
<defs>
<linearGradient id="paint0_linear_9_102" x1="0" y1="14.5" x2="29" y2="14.5" gradientUnits="userSpaceOnUse">
<stop stop-color="#0568EA"/>
<stop offset="1" stop-color="#EA00FF"/>
</linearGradient>
</defs>
</svg>
