<svg width="31" height="30" viewBox="0 0 31 30" fill="none" xmlns="http://www.w3.org/2000/svg">
<path d="M27.766 15.0011C27.766 15.3323 27.757 15.6724 27.7297 16.0036C27.7206 16.1647 27.7024 16.3348 27.6842 16.4959C27.6842 16.487 27.6297 16.8898 27.666 16.6839C27.6933 16.5049 27.6388 16.8361 27.6388 16.8719C27.5297 17.5522 27.3569 18.2145 27.1479 18.868C27.0479 19.1723 26.9297 19.4677 26.8115 19.7631C26.7115 20.0048 26.7842 19.8168 26.8115 19.772C26.7751 19.8436 26.7479 19.9153 26.7115 19.9869C26.6297 20.1659 26.5388 20.3449 26.4478 20.5239C26.1388 21.1147 25.7842 21.6876 25.3933 22.2336C25.3024 22.3589 25.2115 22.4842 25.1115 22.6095C25.2842 22.3947 24.9933 22.7528 24.9569 22.7975C24.7387 23.0481 24.5115 23.2988 24.2842 23.5405C24.0478 23.7821 23.8024 24.0059 23.5569 24.2297C23.4387 24.3371 23.3205 24.4356 23.1933 24.534C23.1296 24.5877 23.066 24.6325 23.0115 24.6862C22.8205 24.8473 23.0842 24.6325 22.9569 24.731C22.4296 25.1248 21.8842 25.4739 21.3024 25.7872C21.0023 25.9483 20.7023 26.1005 20.3933 26.2437C20.3205 26.2795 20.2478 26.3064 20.1751 26.3422C19.9842 26.4317 20.366 26.2706 20.166 26.3422C19.9933 26.4138 19.8296 26.4764 19.6569 26.5391C19.0023 26.7718 18.3387 26.9598 17.6569 27.0941C17.4932 27.1299 17.3296 27.1567 17.166 27.1836C17.0841 27.1925 17.0023 27.2104 16.9205 27.2194C17.175 27.1836 16.966 27.2104 16.9114 27.2194C16.5387 27.2641 16.1569 27.291 15.775 27.3089C15.0568 27.3357 14.3387 27.2999 13.6205 27.2194C13.5659 27.2104 13.3568 27.1836 13.6114 27.2194C13.5296 27.2104 13.4477 27.1925 13.3659 27.1836C13.2023 27.1567 13.0387 27.1299 12.875 27.0941C12.5114 27.0224 12.1568 26.9329 11.8023 26.8345C11.4932 26.745 11.1841 26.6465 10.875 26.5391C10.7205 26.4854 10.575 26.4227 10.4204 26.369C10.375 26.3511 10.1841 26.2616 10.4114 26.369C10.3204 26.3332 10.2295 26.2885 10.1386 26.2437C9.52044 25.9662 8.92953 25.635 8.3568 25.268C8.09316 25.098 7.82952 24.9189 7.57497 24.722C7.41133 24.5967 7.72952 24.8473 7.56588 24.7131C7.50224 24.6593 7.43861 24.6146 7.38406 24.5609C7.22951 24.4356 7.08406 24.3103 6.92951 24.176C6.44769 23.7463 5.98405 23.2809 5.56586 22.7796C5.5295 22.7349 5.23859 22.3768 5.41132 22.5916C5.31132 22.4663 5.22041 22.341 5.1295 22.2157C4.9204 21.9293 4.7204 21.6339 4.53858 21.3295C4.37495 21.061 4.2204 20.7835 4.07494 20.506C4.00222 20.3628 3.92949 20.2196 3.86585 20.0764C3.82949 20.0048 3.80221 19.9332 3.76585 19.8615C3.59312 19.5125 3.85676 20.1032 3.7113 19.7452C3.45676 19.1097 3.23857 18.4652 3.08403 17.8028C3.0113 17.4895 2.93857 17.1673 2.89312 16.845C2.88402 16.7645 2.86584 16.6839 2.85675 16.6033C2.86584 16.657 2.88402 16.8629 2.85675 16.5944C2.82948 16.3885 2.8113 16.1826 2.79312 15.9768C2.73857 15.2875 2.74766 14.5983 2.80221 13.9091C2.82039 13.7211 2.83857 13.5421 2.85675 13.3541C2.86584 13.3004 2.89312 13.0945 2.85675 13.3451C2.86584 13.2646 2.88402 13.184 2.89312 13.1035C2.94766 12.7633 3.02039 12.4232 3.10221 12.092C3.26585 11.4296 3.48403 10.7851 3.73858 10.1496C3.8204 9.95266 3.65676 10.3286 3.73858 10.1406C3.77494 10.069 3.80221 9.99742 3.83858 9.92581C3.90221 9.78259 3.97494 9.63937 4.04767 9.49615C4.20222 9.20077 4.36585 8.90538 4.53858 8.61894C4.71131 8.33251 4.90222 8.05502 5.09313 7.77754C5.18404 7.65222 5.27495 7.52691 5.37495 7.40159C5.50223 7.24047 5.24768 7.55376 5.38404 7.39264C5.44768 7.32103 5.51132 7.24047 5.57496 7.16886C6.01132 6.65865 6.47496 6.18424 6.98406 5.73668C7.10224 5.62927 7.22042 5.53081 7.3477 5.43235C7.39315 5.39654 7.75679 5.11011 7.53861 5.28018C7.82043 5.06535 8.12043 4.85947 8.42043 4.6715C8.99316 4.3045 9.58408 3.98226 10.2114 3.70478C10.2841 3.66898 10.3568 3.64212 10.4295 3.60632C10.3841 3.62422 10.1932 3.69583 10.4386 3.60632C10.5932 3.54366 10.7386 3.48995 10.8932 3.43625C11.2205 3.31988 11.5477 3.21247 11.875 3.12296C12.2114 3.03345 12.5477 2.95289 12.8932 2.88128C13.0568 2.84547 13.2205 2.81862 13.3841 2.79177C13.4659 2.78281 13.5477 2.76491 13.6296 2.75596C13.4296 2.78281 13.5932 2.76491 13.7023 2.74701C14.4205 2.66645 15.1387 2.6396 15.8569 2.66645C16.1932 2.68435 16.5296 2.70225 16.866 2.74701C16.9023 2.74701 17.166 2.78281 16.9932 2.76491C16.8205 2.73806 17.0841 2.78281 17.1205 2.78281C17.3023 2.80967 17.4841 2.84547 17.666 2.88128C18.3478 3.01554 19.0205 3.20352 19.666 3.43625C19.8205 3.48995 19.966 3.55261 20.1205 3.60632C20.366 3.70478 20.1751 3.63317 20.1296 3.60632C20.2023 3.64212 20.2751 3.66898 20.3478 3.70478C20.6751 3.848 21.0024 4.00912 21.3114 4.18814C21.9024 4.51038 22.4751 4.87738 23.0115 5.28018C22.7933 5.11011 23.1569 5.39654 23.2024 5.43235C23.3205 5.53081 23.4478 5.63822 23.566 5.73668C23.8296 5.96941 24.0933 6.22004 24.3387 6.47067C24.5569 6.69445 24.766 6.92718 24.9751 7.16886C25.0297 7.23152 25.2933 7.56271 25.1297 7.35684C25.2478 7.509 25.366 7.67013 25.4842 7.83125C25.866 8.35936 26.2024 8.92328 26.5024 9.49615C26.5751 9.63937 26.6479 9.78259 26.7115 9.92581C26.7479 9.99742 26.7751 10.069 26.8115 10.1406C26.9024 10.3286 26.7388 9.95266 26.8115 10.1496C26.9479 10.4808 27.0751 10.8209 27.1842 11.1611C27.3933 11.7966 27.5479 12.45 27.6569 13.1035C27.666 13.184 27.6842 13.2646 27.6933 13.3451C27.6569 13.0766 27.6933 13.3451 27.7024 13.4167C27.7206 13.5779 27.7388 13.7479 27.7479 13.9091C27.7479 14.294 27.766 14.652 27.766 15.0011C27.766 15.6993 28.3933 16.3796 29.1297 16.3438C29.8661 16.308 30.4933 15.753 30.4933 15.0011C30.4661 8.70845 26.4115 3.0603 20.4205 0.885177C14.5205 -1.26309 7.53861 0.598741 3.54767 5.38759C1.52038 7.81334 0.311277 10.7404 0.047639 13.8732C-0.206908 16.9524 0.565825 20.1211 2.19311 22.7617C3.75676 25.2949 6.10223 27.3984 8.84771 28.6247C11.8386 29.9584 15.1387 30.3344 18.3569 29.6988C24.3933 28.4994 29.3297 23.4778 30.2752 17.4716C30.4024 16.657 30.4842 15.8335 30.4842 15.01C30.4842 14.3119 29.857 13.6316 29.1206 13.6674C28.3842 13.6942 27.766 14.2492 27.766 15.0011Z" fill="#646262"/>
<path d="M14 10.3018C14 13.0945 14 15.8962 14 18.689C14 19.0828 14 19.4856 14 19.8795C14 20.5777 14.6273 21.258 15.3636 21.2221C16.1 21.1863 16.7273 20.6314 16.7273 19.8795C16.7273 17.0867 16.7273 14.285 16.7273 11.4923C16.7273 11.0984 16.7273 10.6956 16.7273 10.3018C16.7273 9.6036 16.1 8.92331 15.3636 8.95912C14.6273 8.99492 14 9.54989 14 10.3018Z" fill="#646262"/>
<path d="M10.365 16.4331C13.2014 16.4331 16.0469 16.4331 18.8833 16.4331C19.2833 16.4331 19.6924 16.4331 20.0924 16.4331C20.8015 16.4331 21.4924 15.8155 21.456 15.0905C21.4197 14.3654 20.856 13.7478 20.0924 13.7478C17.256 13.7478 14.4105 13.7478 11.5741 13.7478C11.1741 13.7478 10.765 13.7478 10.365 13.7478C9.65593 13.7478 8.96501 14.3654 9.00137 15.0905C9.03774 15.8155 9.60138 16.4331 10.365 16.4331Z" fill="#646262"/>
</svg>
