<svg width="32" height="30" viewBox="0 0 32 30" fill="none" xmlns="http://www.w3.org/2000/svg">
<path d="M28.3071 15.0011C28.3071 15.3323 28.298 15.6724 28.2707 16.0036C28.2616 16.1647 28.2434 16.3348 28.2252 16.4959C28.2252 16.487 28.1707 16.8898 28.2071 16.6839C28.2343 16.5049 28.1798 16.8361 28.1798 16.8719C28.0707 17.5522 27.898 18.2145 27.6889 18.868C27.5889 19.1723 27.4707 19.4677 27.3525 19.7631C27.2525 20.0048 27.3252 19.8168 27.3525 19.772C27.3161 19.8436 27.2889 19.9153 27.2525 19.9869C27.1707 20.1659 27.0798 20.3449 26.9889 20.5239C26.6798 21.1147 26.3252 21.6876 25.9343 22.2336C25.8434 22.3589 25.7525 22.4842 25.6525 22.6095C25.8252 22.3947 25.5343 22.7528 25.4979 22.7975C25.2798 23.0481 25.0525 23.2988 24.8252 23.5405C24.5888 23.7821 24.3434 24.0059 24.0979 24.2297C23.9797 24.3371 23.8616 24.4356 23.7343 24.534C23.6707 24.5877 23.607 24.6325 23.5525 24.6862C23.3616 24.8473 23.6252 24.6325 23.4979 24.731C22.9706 25.1248 22.4252 25.4739 21.8434 25.7872C21.5434 25.9483 21.2434 26.1005 20.9343 26.2437C20.8615 26.2795 20.7888 26.3064 20.7161 26.3422C20.5252 26.4317 20.907 26.2706 20.707 26.3422C20.5343 26.4138 20.3706 26.4764 20.1979 26.5391C19.5433 26.7718 18.8797 26.9598 18.1979 27.0941C18.0342 27.1299 17.8706 27.1567 17.707 27.1836C17.6252 27.1925 17.5433 27.2104 17.4615 27.2194C17.7161 27.1836 17.507 27.2104 17.4524 27.2194C17.0797 27.2641 16.6979 27.291 16.3161 27.3089C15.5979 27.3357 14.8797 27.2999 14.1615 27.2194C14.1069 27.2104 13.8979 27.1836 14.1524 27.2194C14.0706 27.2104 13.9888 27.1925 13.9069 27.1836C13.7433 27.1567 13.5797 27.1299 13.416 27.0941C13.0524 27.0224 12.6978 26.9329 12.3433 26.8345C12.0342 26.745 11.7251 26.6465 11.416 26.5391C11.2615 26.4854 11.116 26.4227 10.9615 26.369C10.916 26.3511 10.7251 26.2616 10.9524 26.369C10.8615 26.3332 10.7706 26.2885 10.6796 26.2437C10.0615 25.9662 9.47054 25.635 8.89781 25.268C8.63417 25.098 8.37053 24.9189 8.11599 24.722C7.95235 24.5967 8.27053 24.8473 8.1069 24.7131C8.04326 24.6593 7.97962 24.6146 7.92508 24.5609C7.77053 24.4356 7.62507 24.3103 7.47053 24.176C6.98871 23.7463 6.52507 23.2809 6.10688 22.7796C6.07052 22.7349 5.7796 22.3768 5.95233 22.5916C5.85233 22.4663 5.76142 22.341 5.67051 22.2157C5.46142 21.9293 5.26142 21.6339 5.0796 21.3295C4.91596 21.061 4.76142 20.7835 4.61596 20.506C4.54323 20.3628 4.4705 20.2196 4.40687 20.0764C4.3705 20.0048 4.34323 19.9332 4.30687 19.8615C4.13414 19.5125 4.39778 20.1032 4.25232 19.7452C3.99777 19.1097 3.77959 18.4652 3.62504 17.8028C3.55231 17.4895 3.47959 17.1673 3.43413 16.845C3.42504 16.7645 3.40686 16.6839 3.39777 16.6033C3.40686 16.657 3.42504 16.8629 3.39777 16.5944C3.37049 16.3885 3.35231 16.1826 3.33413 15.9768C3.27959 15.2875 3.28868 14.5983 3.34322 13.9091C3.3614 13.7211 3.37959 13.5421 3.39777 13.3541C3.40686 13.3004 3.43413 13.0945 3.39777 13.3451C3.40686 13.2646 3.42504 13.184 3.43413 13.1035C3.48868 12.7633 3.56141 12.4232 3.64322 12.092C3.80686 11.4296 4.02505 10.7851 4.27959 10.1496C4.36141 9.95266 4.19777 10.3286 4.27959 10.1406C4.31596 10.069 4.34323 9.99742 4.37959 9.92581C4.44323 9.78259 4.51596 9.63937 4.58869 9.49615C4.74323 9.20077 4.90687 8.90538 5.0796 8.61894C5.25233 8.33251 5.44324 8.05502 5.63415 7.77754C5.72506 7.65222 5.81597 7.52691 5.91597 7.40159C6.04324 7.24047 5.7887 7.55376 5.92506 7.39264C5.9887 7.32103 6.05233 7.24047 6.11597 7.16886C6.55234 6.65865 7.01598 6.18424 7.52507 5.73668C7.64326 5.62927 7.76144 5.53081 7.88871 5.43235C7.93417 5.39654 8.29781 5.11011 8.07962 5.28018C8.36144 5.06535 8.66145 4.85947 8.96145 4.6715C9.53418 4.3045 10.1251 3.98226 10.7524 3.70478C10.8251 3.66898 10.8978 3.64212 10.9706 3.60632C10.9251 3.62422 10.7342 3.69583 10.9796 3.60632C11.1342 3.54366 11.2796 3.48995 11.4342 3.43625C11.7615 3.31988 12.0887 3.21247 12.416 3.12296C12.7524 3.03345 13.0888 2.95289 13.4342 2.88128C13.5978 2.84547 13.7615 2.81862 13.9251 2.79177C14.0069 2.78281 14.0888 2.76491 14.1706 2.75596C13.9706 2.78281 14.1342 2.76491 14.2433 2.74701C14.9615 2.66645 15.6797 2.6396 16.3979 2.66645C16.7342 2.68435 17.0706 2.70225 17.407 2.74701C17.4433 2.74701 17.707 2.78281 17.5342 2.76491C17.3615 2.73806 17.6252 2.78281 17.6615 2.78281C17.8433 2.80967 18.0252 2.84547 18.207 2.88128C18.8888 3.01554 19.5615 3.20352 20.207 3.43625C20.3615 3.48995 20.507 3.55261 20.6615 3.60632C20.907 3.70478 20.7161 3.63317 20.6706 3.60632C20.7434 3.64212 20.8161 3.66898 20.8888 3.70478C21.2161 3.848 21.5434 4.00912 21.8525 4.18814C22.4434 4.51038 23.0161 4.87738 23.5525 5.28018C23.3343 5.11011 23.6979 5.39654 23.7434 5.43235C23.8616 5.53081 23.9888 5.63822 24.107 5.73668C24.3707 5.96941 24.6343 6.22004 24.8798 6.47067C25.0979 6.69445 25.307 6.92718 25.5161 7.16886C25.5707 7.23152 25.8343 7.56271 25.6707 7.35684C25.7889 7.509 25.907 7.67013 26.0252 7.83125C26.407 8.35936 26.7434 8.92328 27.0434 9.49615C27.1161 9.63937 27.1889 9.78259 27.2525 9.92581C27.2889 9.99742 27.3161 10.069 27.3525 10.1406C27.4434 10.3286 27.2798 9.95266 27.3525 10.1496C27.4889 10.4808 27.6161 10.8209 27.7252 11.1611C27.9343 11.7966 28.0889 12.45 28.198 13.1035C28.2071 13.184 28.2252 13.2646 28.2343 13.3451C28.198 13.0766 28.2343 13.3451 28.2434 13.4167C28.2616 13.5779 28.2798 13.7479 28.2889 13.9091C28.2889 14.294 28.3071 14.652 28.3071 15.0011C28.3071 15.6993 28.9343 16.3796 29.6707 16.3438C30.4071 16.308 31.0344 15.753 31.0344 15.0011C31.0071 8.70845 26.9525 3.0603 20.9615 0.885177C15.0615 -1.26309 8.07962 0.598741 4.08868 5.38759C2.06139 7.81334 0.852293 10.7404 0.588655 13.8732C0.334107 16.9524 1.10684 20.1211 2.73413 22.7617C4.29777 25.2949 6.64325 27.3984 9.38872 28.6247C12.3797 29.9584 15.6797 30.3344 18.8979 29.6988C24.9343 28.4994 29.8707 23.4778 30.8162 17.4716C30.9434 16.657 31.0253 15.8335 31.0253 15.01C31.0253 14.3119 30.398 13.6316 29.6616 13.6674C28.9252 13.6942 28.3071 14.2492 28.3071 15.0011Z" fill="url(#paint0_linear_147_411)"/>
<path d="M14.3889 10.302C14.3889 13.0948 14.3889 15.8965 14.3889 18.6892C14.3889 19.0831 14.3889 19.4859 14.3889 19.8797C14.3889 20.5779 15.0162 21.2582 15.7526 21.2224C16.4889 21.1866 17.1162 20.6316 17.1162 19.8797C17.1162 17.087 17.1162 14.2853 17.1162 11.4925C17.1162 11.0987 17.1162 10.6959 17.1162 10.302C17.1162 9.60384 16.4889 8.92356 15.7526 8.95936C15.0162 8.99517 14.3889 9.55014 14.3889 10.302Z" fill="url(#paint1_linear_147_411)"/>
<path d="M10.8889 16.4334C13.7253 16.4334 16.5708 16.4334 19.4072 16.4334C19.8072 16.4334 20.2163 16.4334 20.6163 16.4334C21.3254 16.4334 22.0163 15.8158 21.9799 15.0907C21.9436 14.3657 21.3799 13.748 20.6163 13.748C17.7799 13.748 14.9344 13.748 12.098 13.748C11.698 13.748 11.289 13.748 10.8889 13.748C10.1799 13.748 9.48894 14.3657 9.5253 15.0907C9.56166 15.8158 10.1253 16.4334 10.8889 16.4334Z" fill="url(#paint2_linear_147_411)"/>
<defs>
<linearGradient id="paint0_linear_147_411" x1="1" y1="15" x2="30" y2="15" gradientUnits="userSpaceOnUse">
<stop stop-color="#0D64EB"/>
<stop offset="1" stop-color="#E104FE"/>
</linearGradient>
<linearGradient id="paint1_linear_147_411" x1="14.43" y1="15.0909" x2="17.0237" y2="15.0909" gradientUnits="userSpaceOnUse">
<stop stop-color="#0D64EB"/>
<stop offset="1" stop-color="#E104FE"/>
</linearGradient>
<linearGradient id="paint2_linear_147_411" x1="9.71143" y1="15.0907" x2="21.5588" y2="15.0907" gradientUnits="userSpaceOnUse">
<stop stop-color="#0D64EB"/>
<stop offset="1" stop-color="#E104FE"/>
</linearGradient>
</defs>
</svg>
