<svg width="14" height="14" viewBox="0 0 14 14" fill="none" xmlns="http://www.w3.org/2000/svg">
<path fill-rule="evenodd" clip-rule="evenodd" d="M11.1929 8.93647C11.1292 9.00311 11.0997 9.09752 11.1144 9.1907L11.6238 13.0404C11.6639 13.3477 11.5394 13.6537 11.2992 13.8364C11.0595 14.019 10.7431 14.0499 10.4752 13.9154L7.12674 12.2173C7.04646 12.1765 6.95321 12.1765 6.87293 12.2173L3.52448 13.9154C3.25651 14.0511 2.93896 14.0221 2.69754 13.8388C2.45671 13.6556 2.33217 13.3489 2.37291 13.0404L2.88229 9.1907C2.89705 9.09753 2.86754 9.00312 2.80379 8.93647L0.230349 6.13581C0.020225 5.91181 -0.0529694 5.58417 0.0391129 5.28614C0.131192 4.9875 0.374381 4.7672 0.67009 4.71415L4.32966 4.0317C4.41879 4.01628 4.49494 3.95766 4.53566 3.87374L6.28876 0.446117H6.28817C6.42865 0.171531 6.70193 0 7 0C7.29807 0 7.57135 0.171531 7.71183 0.446117L9.46493 3.87374H9.46434C9.50507 3.95766 9.58121 4.01627 9.67034 4.0317L13.3299 4.71415C13.6256 4.76721 13.8688 4.9875 13.9609 5.28614C14.053 5.58417 13.9798 5.91181 13.7697 6.13581L11.1929 8.93647Z" fill="#B2AFAF"/>
</svg>
