<svg width="30" height="30" viewBox="0 0 30 30" fill="none" xmlns="http://www.w3.org/2000/svg">
<path d="M22.3498 12.5798C22.3498 12.865 22.3427 13.1432 22.3213 13.4284C22.307 13.5782 22.2927 13.7208 22.2784 13.8706C22.2641 14.0489 22.3356 13.9205 22.2927 13.785C22.3141 13.8421 22.2641 13.9633 22.257 14.0275C22.1641 14.5838 22.0356 15.1258 21.857 15.6607C21.7784 15.9031 21.6856 16.1385 21.5999 16.3738C21.507 16.6234 21.6356 16.3096 21.6356 16.2954C21.6427 16.3382 21.557 16.4665 21.5427 16.5093C21.4856 16.6377 21.4213 16.7661 21.357 16.8944C21.0999 17.3936 20.8142 17.8786 20.4856 18.335C20.4284 18.4135 20.3499 18.5846 20.2642 18.6346C20.2784 18.6203 20.4784 18.3707 20.3142 18.5632C20.2713 18.6132 20.2356 18.6631 20.1927 18.7059C20.0142 18.9198 19.8285 19.1266 19.6356 19.3263C19.4499 19.5189 19.2642 19.6972 19.0642 19.8755C18.9713 19.9611 18.8785 20.0395 18.7856 20.118C18.7356 20.1607 18.6928 20.1964 18.6428 20.2392C18.3928 20.446 18.7428 20.1679 18.6356 20.2463C18.1928 20.5672 17.7428 20.8739 17.2642 21.1378C17.0428 21.259 16.8214 21.3731 16.5928 21.4801C16.5356 21.5086 16.4785 21.53 16.4214 21.5585C16.1785 21.6655 16.4928 21.5372 16.4999 21.5229C16.4285 21.6085 16.1571 21.6584 16.0571 21.6941C15.5285 21.8866 14.9928 22.0364 14.4428 22.1433C14.3 22.1719 14.1571 22.2004 14.0143 22.2218C13.95 22.2289 13.8857 22.2361 13.8214 22.2503C13.8571 22.2432 14.1642 22.2147 13.9071 22.2361C13.6143 22.2646 13.3143 22.2931 13.0214 22.3002C12.4571 22.3216 11.8929 22.286 11.3286 22.2361C11.0571 22.2075 11.4 22.2575 11.4143 22.2503C11.3643 22.2717 11.2286 22.2218 11.1714 22.2147C11.0429 22.1933 10.9143 22.1719 10.7857 22.1433C10.5 22.0863 10.2214 22.0221 9.94288 21.9437C9.68574 21.8723 9.42146 21.7868 9.17146 21.6941C9.05003 21.6513 8.93575 21.6013 8.81432 21.5585C8.56433 21.4587 8.87861 21.5942 8.89289 21.5942C8.85718 21.6013 8.67147 21.4944 8.63575 21.4801C8.15005 21.259 7.68577 20.9951 7.23577 20.7099C7.01435 20.5672 6.80006 20.4104 6.58578 20.2535C6.4215 20.1322 6.85721 20.4817 6.61435 20.2748C6.56435 20.2321 6.51435 20.1964 6.4715 20.1536C6.35007 20.0538 6.23579 19.9539 6.1215 19.8469C5.72865 19.4904 5.36437 19.1124 5.02152 18.7059C4.97866 18.656 4.94295 18.606 4.90009 18.5632C4.73581 18.3636 4.9358 18.6203 4.95009 18.6346C4.85723 18.5775 4.76438 18.385 4.70009 18.2994C4.53581 18.0712 4.38581 17.8358 4.24296 17.5933C4.10724 17.3651 3.97867 17.1298 3.85725 16.8944C3.80011 16.7803 3.74296 16.6662 3.69296 16.5521C3.66439 16.4951 3.64296 16.438 3.61439 16.381C3.47868 16.0814 3.72868 16.6805 3.61439 16.3738C3.42154 15.8675 3.25011 15.3611 3.12154 14.8334C3.05726 14.5695 3.00012 14.2985 2.95726 14.0275C2.95012 13.9633 2.93583 13.8991 2.92869 13.8349C2.90012 13.6353 2.95726 14.1202 2.94297 13.9205C2.92869 13.7565 2.90726 13.5925 2.89298 13.4284C2.85012 12.8508 2.85012 12.266 2.90012 11.6883C2.90726 11.5599 2.92869 11.4244 2.93583 11.2961C2.9644 11.0393 2.92869 11.346 2.92155 11.3816C2.93583 11.3175 2.94297 11.2533 2.95012 11.1891C2.99297 10.9038 3.05012 10.6185 3.12154 10.3333C3.25011 9.79127 3.43582 9.27066 3.63582 8.75005C3.70725 8.55749 3.48582 9.0781 3.62154 8.78571C3.65011 8.72865 3.67154 8.6716 3.70011 8.61455C3.75011 8.50044 3.80725 8.38633 3.86439 8.27223C3.99296 8.02262 4.12867 7.77301 4.27153 7.53053C4.4001 7.31658 4.53581 7.10976 4.67866 6.90294C4.75724 6.78884 4.84295 6.67473 4.92866 6.56062C5.04295 6.40372 4.75009 6.77457 4.87866 6.63194C4.92866 6.57488 4.97866 6.5107 5.02866 6.45365C5.3858 6.02574 5.77865 5.61924 6.19293 5.24839C6.28579 5.16281 6.37864 5.08436 6.47864 5.00591C6.52864 4.96312 6.57864 4.92747 6.6215 4.88468C6.82149 4.72065 6.56435 4.92033 6.55007 4.9346C6.66435 4.74917 7.0572 4.57088 7.23577 4.44964C7.69291 4.15011 8.17862 3.88624 8.67861 3.65803C8.73575 3.6295 8.79289 3.6081 8.85004 3.57958C9.02146 3.494 8.58575 3.67942 8.77147 3.61524C8.90718 3.56531 9.03575 3.50826 9.17146 3.45834C9.44289 3.35849 9.71431 3.27291 9.99288 3.19447C10.2429 3.12315 10.4929 3.0661 10.7429 3.01617C10.8714 2.98765 11 2.96625 11.1214 2.94486C11.2 2.93059 11.2786 2.92346 11.3643 2.9092C11.55 2.88067 11.05 2.94486 11.3214 2.91633C11.9 2.85928 12.4786 2.83075 13.0643 2.85215C13.3428 2.86641 13.6214 2.8878 13.9 2.91633C14.0785 2.93773 13.95 2.85928 13.8143 2.90207C13.85 2.89494 13.9857 2.93059 14.0071 2.93059C14.1642 2.95912 14.3285 2.98765 14.4857 3.01617C15.0214 3.12315 15.5428 3.27291 16.0499 3.45834C16.1856 3.50826 16.3142 3.56531 16.4499 3.61524C16.6285 3.67942 16.1999 3.50113 16.3714 3.57958C16.4285 3.6081 16.4856 3.6295 16.5428 3.65803C16.7999 3.77213 17.0499 3.9005 17.2999 4.04314C17.5356 4.17151 17.7571 4.30701 17.9856 4.45677C18.1785 4.58514 18.5428 4.74917 18.6713 4.94173C18.557 4.77057 18.4928 4.79909 18.5999 4.89181C18.6499 4.9346 18.6999 4.97026 18.7428 5.01305C18.8356 5.09149 18.9356 5.17707 19.0285 5.25552C19.2499 5.44808 19.4642 5.6549 19.6642 5.86885C19.8499 6.0614 20.0213 6.25396 20.1927 6.46078C20.2356 6.5107 20.2713 6.56062 20.3142 6.60341C20.407 6.71039 20.4356 6.65333 20.2642 6.53209C20.3713 6.60341 20.4713 6.8031 20.5427 6.91007C20.8499 7.34511 21.1213 7.80153 21.3641 8.27223C21.4213 8.38633 21.4784 8.50044 21.5284 8.61455C21.5641 8.68586 21.5927 8.75718 21.6284 8.8285C21.7141 8.99966 21.5284 8.57176 21.5927 8.75005C21.6927 9.01392 21.7999 9.27779 21.8856 9.55593C22.057 10.0908 22.1856 10.6399 22.2784 11.1962C22.2856 11.2604 22.2927 11.3246 22.307 11.3888C22.2999 11.3531 22.2641 11.0465 22.2927 11.3032C22.307 11.4316 22.3213 11.5671 22.3284 11.6954C22.3427 11.9878 22.3498 12.2874 22.3498 12.5798C22.3498 13.3286 23.007 14.0418 23.7784 14.0061C24.5498 13.9704 25.207 13.3785 25.207 12.5798C25.1927 10.0195 24.4212 7.43782 22.9141 5.35537C21.3856 3.23012 19.3142 1.63976 16.8499 0.734035C11.9929 -1.05602 6.2215 0.512953 2.94297 4.51383C1.25728 6.57488 0.250155 9.02818 0.035872 11.6883C-0.164125 14.2414 0.478723 16.8802 1.80013 19.0696C3.07869 21.1877 5.01437 22.9564 7.27149 23.9833C9.76431 25.1101 12.5 25.4382 15.1857 24.9033C20.1642 23.9049 24.2713 19.6687 25.0284 14.6408C25.1284 13.9562 25.1998 13.2787 25.207 12.5869C25.207 11.8381 24.5498 11.1249 23.7784 11.1606C23.007 11.1891 22.357 11.781 22.3498 12.5798Z" fill="url(#paint0_linear_22_514)"/>
<path d="M19.6358 21.2804C21.9501 23.591 24.2715 25.9088 26.5857 28.2195C26.9143 28.5476 27.2428 28.8756 27.5714 29.2037C28.1 29.7314 29.0714 29.7742 29.5928 29.2037C30.1142 28.6331 30.1571 27.7488 29.5928 27.1854C27.2786 24.8747 24.9572 22.5569 22.6429 20.2463C22.3143 19.9182 21.9858 19.5902 21.6572 19.2621C21.1286 18.7344 20.1572 18.6916 19.6358 19.2621C19.1144 19.8326 19.0715 20.7098 19.6358 21.2804Z" fill="url(#paint1_linear_22_514)"/>
<defs>
<linearGradient id="paint0_linear_22_514" x1="0" y1="12.577" x2="25.207" y2="12.577" gradientUnits="userSpaceOnUse">
<stop stop-color="#0568EA"/>
<stop offset="1" stop-color="#EA00FF"/>
</linearGradient>
<linearGradient id="paint1_linear_22_514" x1="36" y1="31.0001" x2="18" y2="20.5001" gradientUnits="userSpaceOnUse">
<stop stop-color="#0568EA"/>
<stop offset="1" stop-color="#EA00FF"/>
</linearGradient>
</defs>
</svg>
