<svg width="21" height="12" viewBox="0 0 21 12" fill="none" xmlns="http://www.w3.org/2000/svg">
<path d="M20.6018 4.97218C18.278 2.03266 15.2785 0.384513 11.6001 0.0498315C10.4414 -0.054362 9.2826 0.0151007 8.13647 0.248747C5.4306 0.794973 3.1415 2.09897 1.26286 4.14811C0.991326 4.4449 0.735578 4.76064 0.49246 5.08269C0.0504275 5.66681 0.0504277 6.31407 0.476674 6.90134C0.552451 7.00553 0.634543 7.10973 0.716634 7.21076C3.28358 10.3492 6.5862 11.9121 10.2456 11.9973C11.4422 11.9784 12.3011 11.9121 13.1504 11.729C16.2004 11.0785 18.6726 9.48723 20.6176 7.01185C21.1354 6.35511 21.1228 5.61944 20.6081 4.96587L20.6018 4.97218ZM16.5098 8.87786C14.7417 9.97978 12.8189 10.5292 10.7476 10.5702C6.62093 10.6491 3.24569 8.41057 1.59123 5.99833C5.84421 0.0340456 15.048 -0.202758 19.5788 5.9857C19.1778 6.74979 17.7317 8.11693 16.5098 8.87786Z" fill="#FFFDFD" fill-opacity="0.5"/>
<path d="M10.697 1.84639C8.40162 1.78324 6.53245 3.67451 6.52298 5.94466C6.47877 8.30322 8.37004 10.0966 10.4729 10.1566C12.5536 10.2166 14.6153 8.56844 14.6501 6.05833C14.6848 3.64925 12.803 1.90638 10.697 1.84639ZM10.5834 8.72947C9.23201 8.7642 7.90591 7.60544 7.91222 5.99202C7.91538 4.46385 9.1436 3.27983 10.5676 3.2672C11.8621 3.25458 13.2513 4.27441 13.2577 5.99518C13.264 7.73805 11.84 8.77051 10.5834 8.72947Z" fill="#FFFDFD" fill-opacity="0.5"/>
</svg>
