<svg width="25" height="26" viewBox="0 0 30 31" fill="none" xmlns="http://www.w3.org/2000/svg">
<path d="M5.2691 29.2952C6.32661 29.2952 7.28487 28.8663 7.9772 28.1739C8.67076 27.4816 9.09843 26.5233 9.09843 25.4658C9.09843 24.4083 8.66954 23.4501 7.9772 22.7577C7.28487 22.0654 6.32661 21.6365 5.2691 21.6365C4.21159 21.6365 3.25456 22.0654 2.561 22.7577C1.86867 23.4501 1.43978 24.4083 1.43978 25.4658C1.43978 26.5233 1.86867 27.4804 2.561 28.1739C3.25334 28.8675 4.21159 29.2952 5.2691 29.2952ZM14.7243 4.63307C14.7586 4.61837 14.7954 4.60611 14.8346 4.59876L29.0038 0.055142C29.0883 0.0208296 29.1814 0 29.2795 0C29.6777 0 30 0.322263 30 0.720535V19.225C30 20.6795 29.4094 21.9981 28.456 22.9514C27.5026 23.9048 26.1854 24.4954 24.7296 24.4954C23.275 24.4954 21.9565 23.9048 21.0031 22.9514C20.0486 21.9969 19.4591 20.6796 19.4591 19.225C19.4591 17.7705 20.0498 16.452 21.0031 15.4986C21.9565 14.5452 23.275 13.9546 24.7296 13.9546C26.1841 13.9546 27.5026 14.5452 28.456 15.4986C28.4903 15.5329 28.5259 15.5697 28.5589 15.6052V7.40353L15.2744 11.6642C15.2389 11.6789 15.2021 11.6911 15.1629 11.6997L10.5409 13.1825V25.4682C10.5409 26.9227 9.95022 28.2412 8.99686 29.1946C8.0435 30.1492 6.72499 30.7386 5.27043 30.7386C3.81587 30.7386 2.49739 30.148 1.544 29.1946C0.589409 28.2412 0 26.924 0 25.4682C0 24.0136 0.590633 22.6951 1.544 21.7417C2.49736 20.7871 3.81464 20.1977 5.27043 20.1977C6.72496 20.1977 8.04346 20.7884 8.99686 21.7417C9.03117 21.776 9.06671 21.8116 9.09979 21.8483V6.96489C9.09979 6.62302 9.33751 6.33749 9.65733 6.26274L14.7254 4.63787L14.7243 4.63307ZM15.7193 5.82293V10.0114L28.559 5.89414V1.70563L15.7193 5.82293ZM14.2783 10.4732V6.2847L10.5396 7.48312V11.6716L14.2783 10.4732ZM24.7282 23.0541C25.7857 23.0541 26.7427 22.6252 27.4363 21.9329C28.1299 21.2393 28.5575 20.2823 28.5575 19.2248C28.5575 18.1673 28.1286 17.2102 27.4363 16.5167C26.744 15.8243 25.7857 15.3955 24.7282 15.3955C23.6707 15.3955 22.7124 15.8243 22.0201 16.5167C21.3265 17.2102 20.8989 18.1673 20.8989 19.2248C20.8989 20.2823 21.3278 21.2393 22.0201 21.9329C22.7124 22.6252 23.6707 23.0541 24.7282 23.0541Z" fill="#646262"/>
</svg>
