<svg width="22" height="22" viewBox="0 0 30 30" fill="none" xmlns="http://www.w3.org/2000/svg">
<path d="M15 0C12.0333 0 9.13319 0.879734 6.66645 2.52796C4.19972 4.17618 2.27713 6.51886 1.14181 9.25975C0.00649958 12.0006 -0.290551 15.0166 0.288227 17.9264C0.867006 20.8361 2.29562 23.5088 4.3934 25.6066C6.49119 27.7044 9.16394 29.133 12.0737 29.7118C14.9834 30.2906 17.9994 29.9935 20.7403 28.8582C23.4811 27.7229 25.8238 25.8003 27.472 23.3335C29.1203 20.8668 30 17.9667 30 15C30 13.0302 29.612 11.0796 28.8582 9.25975C28.1044 7.43986 26.9995 5.78628 25.6066 4.3934C24.2137 3.00052 22.5601 1.89563 20.7403 1.14181C18.9204 0.387987 16.9698 0 15 0ZM23.2176 11.1897L13.3362 20.3429C13.1441 20.5214 12.8913 20.6198 12.6291 20.6181C12.3659 20.6192 12.1119 20.5209 11.9179 20.3429L6.78239 15.5969C6.58852 15.4073 6.47626 15.1495 6.4695 14.8784C6.46274 14.6073 6.56201 14.3442 6.74619 14.1451C6.93037 13.9461 7.18495 13.8267 7.45578 13.8124C7.72661 13.7981 7.99233 13.89 8.19645 14.0686L12.6249 18.1583L21.7993 9.65707C22.0026 9.46899 22.2722 9.36935 22.5489 9.38007C22.8256 9.39079 23.0867 9.51099 23.2748 9.71422C23.4628 9.91746 23.5625 10.1871 23.5518 10.4638C23.541 10.7405 23.4209 11.0016 23.2176 11.1897Z" fill="#0568EA"/>
</svg>
